<?xml version="1.0" encoding="UTF-8"?>
<svg width="24px" height="24px" viewBox="0 0 24 24" version="1.1" xmlns="http://www.w3.org/2000/svg" xmlns:xlink="http://www.w3.org/1999/xlink">
    <g stroke="none" stroke-width="1" fill="none" fill-rule="evenodd">
        <path d="M11,14.9997 L11,23 C11,23.5523 11.4477,24 12,24 C12.5523,24 13,23.5523 13,23 L13,14.9997 L16.2929,18.2929 C16.6834,18.6834 17.3166,18.6834 17.7071,18.2929 C18.0976,17.9024 18.0976,17.2692 17.7071,16.8787 L12.7071,11.8787 C12.3166,11.4882 11.6834,11.4882 11.2929,11.8787 L6.2929,16.8787 C5.9024,17.2692 5.9024,17.9024 6.2929,18.2929 C6.6834,18.6834 7.3166,18.6834 7.7071,18.2929 L11,14.9997 Z M18,2 C19.1046,2 20,2.8954 20,4 L20,9 C20,9.5523 19.5523,10 19,10 C18.4477,10 18,9.5523 18,9 L18,4 L6,4 L6,9 C6,9.5523 5.5523,10 5,10 C4.4477,10 4,9.5523 4,9 L4,4 C4,2.8954 4.8954,2 6,2 L18,2 Z" fill="#6B7280"></path>
    </g>
</svg> 